<svg width="110" height="32" viewBox="0 0 110 32" xmlns="http://www.w3.org/2000/svg"><g fill="none" fill-rule="evenodd"><rect fill="#B2BFC3" width="110" height="32" rx="4"/><path d="M21.364 15.636c.025 3.028 2.604 4.03 2.636 4.04-.015.07-.404 1.445-1.371 2.84-.808 1.23-1.655 2.43-2.999 2.452-1.306.03-1.745-.782-3.243-.782-1.512 0-1.98.76-3.233.813-1.28.048-2.258-1.312-3.095-2.53-1.673-2.485-2.976-7.005-1.23-10.08.847-1.509 2.39-2.48 4.04-2.506 1.281-.026 2.471.88 3.259.88.772 0 2.243-1.084 3.76-.922.634.018 2.44.254 3.604 1.981-.094.058-2.15 1.287-2.128 3.814zm-2.467-7.43c-.703.843-1.828 1.488-2.923 1.405-.144-1.138.411-2.348 1.033-3.087.701-.839 1.92-1.48 2.896-1.524.128 1.183-.333 2.349-1.006 3.206z" fill="#353737"/><text font-family="MuseoSans-900, Museo Sans" font-size="5.5" font-weight="bold" letter-spacing=".4" fill="#353737"><tspan x="32" y="11">download on the</tspan></text><path d="M39.748 23.306h-1.566l-.858-2.693h-2.982l-.817 2.693H32l2.955-9.17h1.825l2.968 9.17zm7.598-3.387c0 1.124-.304 2.013-.912 2.666-.545.58-1.22.87-2.03.87-.87 0-1.496-.312-1.878-.938H42.5V26h-1.47v-7.13c0-.706-.02-1.432-.055-2.176h1.293l.082 1.048h.028c.49-.79 1.234-1.184 2.232-1.184.781 0 1.433.308 1.955.925s.782 1.429.782 2.436zm7.613 0c0 1.124-.304 2.013-.913 2.666-.545.58-1.221.87-2.029.87-.872 0-1.498-.312-1.879-.938h-.027V26h-1.47v-7.13c0-.706-.02-1.432-.055-2.176h1.294l.081 1.048h.028c.49-.79 1.233-1.184 2.232-1.184.78 0 1.433.308 1.955.925.521.617.783 1.429.783 2.436zm8.51.816c0 .78-.27 1.414-.815 1.904-.598.536-1.43.803-2.5.803-.987 0-1.78-.19-2.379-.571l.341-1.225c.646.39 1.354.585 2.126.585.554 0 .985-.124 1.294-.375.31-.249.462-.583.462-1.002 0-.372-.126-.685-.381-.94-.253-.254-.676-.49-1.266-.709-1.607-.598-2.41-1.476-2.41-2.63 0-.753.282-1.371.845-1.853.561-.482 1.31-.722 2.247-.722.835 0 1.529.145 2.082.435l-.368 1.197c-.517-.28-1.102-.421-1.756-.421-.517 0-.922.127-1.211.38a1.088 1.088 0 0 0-.368.831c0 .363.14.662.422.897.245.219.69.455 1.335.709.79.317 1.37.689 1.743 1.115.372.426.558.958.558 1.592zm4.862-2.939h-1.62v3.21c0 .817.285 1.225.857 1.225.263 0 .482-.022.654-.067l.04 1.115c-.29.109-.67.163-1.143.163-.581 0-1.035-.177-1.362-.53-.326-.354-.49-.948-.49-1.783v-3.333H64.3v-1.102h.965v-1.211l1.444-.436v1.647h1.621v1.102zm7.313 2.15c0 1.016-.29 1.85-.871 2.503-.609.671-1.417 1.007-2.425 1.007-.971 0-1.744-.322-2.32-.966-.577-.644-.866-1.456-.866-2.436 0-1.024.297-1.864.892-2.516.594-.653 1.395-.98 2.403-.98.972 0 1.753.322 2.343.966.563.626.844 1.433.844 2.422zm4.78-1.96c-.146-.027-.3-.04-.464-.04-.517 0-.917.195-1.198.585-.246.344-.368.78-.368 1.306v3.47h-1.47l.013-4.53c0-.764-.018-1.458-.055-2.083h1.282l.053 1.265h.04c.156-.435.401-.785.736-1.047a1.777 1.777 0 0 1 1.063-.354c.136 0 .259.01.368.027v1.4zM87 19.687c0 .263-.017.485-.054.667h-4.411c.017.653.23 1.152.64 1.497.371.308.852.462 1.442.462.653 0 1.25-.104 1.785-.313l.23 1.02c-.626.273-1.365.409-2.218.409-1.027 0-1.832-.302-2.418-.906-.585-.602-.878-1.412-.878-2.428 0-.998.271-1.828.818-2.49.57-.707 1.342-1.06 2.313-1.06.954 0 1.676.353 2.167 1.06.389.563.584 1.257.584 2.082zm-49.935-.205l-.776-2.393c-.082-.246-.236-.822-.463-1.729h-.027c-.09.391-.236.966-.436 1.729l-.762 2.393h2.464zm8.783.49c0-.643-.144-1.174-.435-1.591a1.507 1.507 0 0 0-1.28-.654 1.53 1.53 0 0 0-.987.361c-.296.24-.489.556-.58.947-.045.18-.067.33-.067.447v1.103c0 .481.147.887.442 1.218.296.331.679.497 1.15.497.555 0 .986-.214 1.295-.64.308-.427.462-.989.462-1.688zm7.613 0c0-.643-.146-1.174-.436-1.591a1.507 1.507 0 0 0-1.28-.654c-.364 0-.693.122-.988.361-.294.24-.487.556-.578.947-.045.18-.068.33-.068.447v1.103c0 .481.147.887.441 1.218.295.331.68.497 1.152.497.554 0 .985-.214 1.293-.64.31-.427.464-.989.464-1.688zm20.658.021c0-.61-.132-1.132-.396-1.569-.308-.528-.749-.791-1.32-.791-.59 0-1.04.263-1.348.791-.264.437-.395.968-.395 1.597 0 .61.13 1.133.395 1.569.318.527.763.79 1.335.79.562 0 1.002-.267 1.32-.804.272-.445.409-.974.409-1.583zm11.479-.687c.01-.435-.086-.811-.286-1.13-.254-.407-.645-.611-1.171-.611-.481 0-.872.199-1.17.599a2.18 2.18 0 0 0-.436 1.142h3.063z" fill="#353737"/></g></svg>