<svg width="24" height="24" viewBox="0 0 24 24" fill="none">
    <path d="M22 12.23c0-.707-.063-1.393-.183-2.045h-9.613v3.871h5.491c-.235 1.253-.957 2.31-2.035 3.017v2.511h3.296C20.888 17.837 22 15.275 22 12.23z" fill="#3E82F1"></path><path d="M12.204 22c2.757 0 5.067-.893 6.752-2.421l-3.296-2.512c-.911.602-2.08.956-3.456.956-2.66 0-4.907-1.759-5.71-4.124h-3.41v2.595C4.763 19.76 8.213 22 12.203 22z" fill="#32A753"></path><path d="M6.494 13.899A5.848 5.848 0 0 1 6.174 12c0-.657.114-1.298.32-1.899v-2.59h-3.41A9.863 9.863 0 0 0 2 12c0 1.612.396 3.14 1.083 4.489l3.411-2.59z" fill="#F9BB00"></path><path d="M12.204 5.978c1.496 0 2.843.505 3.898 1.494l2.929-2.87C17.265 2.988 14.955 2 12.204 2c-3.99 0-7.44 2.242-9.12 5.511l3.41 2.59c.803-2.365 3.05-4.123 5.71-4.123z" fill="#E74133"></path>
</svg>