<svg width="110" height="32" viewBox="0 0 110 32" xmlns="http://www.w3.org/2000/svg"><g fill="none" fill-rule="evenodd"><rect fill="#B2BFC3" width="110" height="32" rx="4"/><path d="M8.438 7.107l8.924 8.906-8.881 8.985c-.26-.165-.398-.522-.4-.982L8 8.07c-.002-.504.181-.812.438-.963zm11.867 5.93L9.453 7.118A1.092 1.092 0 0 0 9.075 7l8.656 8.64 2.574-2.604zm.483 5.653l-2.685-2.68 2.682-2.712 3.693 2.014c.91.495.444 1.116 0 1.359l-3.69 2.019zM9.217 25c.075-.028.154-.064.236-.11l10.854-5.938-2.573-2.568L9.217 25z" fill="#353737"/><text font-family="MuseoSans-900, Museo Sans" font-size="5.5" font-weight="bold" letter-spacing=".4" fill="#353737"><tspan x="32" y="11">Android app on</tspan></text><path d="M82.523 23.888h1.43v-9.543h-1.43v9.543zm12.886-6.105l-1.64 4.137h-.05l-1.701-4.137h-1.541l2.552 5.782-1.455 3.217h1.493l3.933-9h-1.591zm-8.113 5.021c-.47 0-1.123-.233-1.123-.81 0-.736.814-1.019 1.517-1.019.63 0 .924.135 1.307.32a1.732 1.732 0 0 1-1.701 1.51zm.172-5.23c-1.036 0-2.108.454-2.552 1.461l1.27.528c.27-.528.776-.7 1.307-.7.74 0 1.492.442 1.504 1.228v.098a3.175 3.175 0 0 0-1.492-.368c-1.369 0-2.763.749-2.763 2.148 0 1.277 1.123 2.1 2.38 2.1.963 0 1.492-.43 1.826-.933h.049v.736h1.38v-3.658c0-1.695-1.269-2.64-2.909-2.64zm-8.842 1.37h-2.035v-3.27h2.035c1.07 0 1.677.881 1.677 1.635 0 .74-.607 1.636-1.677 1.636zm-.037-4.599h-3.428v9.543h1.43v-3.615h1.998c1.586 0 3.145-1.144 3.145-2.964 0-1.821-1.559-2.964-3.145-2.964zm-18.693 8.46c-.989 0-1.816-.823-1.816-1.954 0-1.144.827-1.98 1.816-1.98.976 0 1.741.836 1.741 1.98 0 1.131-.765 1.955-1.741 1.955zm1.642-4.488h-.049c-.321-.38-.938-.725-1.717-.725-1.63 0-3.125 1.426-3.125 3.259 0 1.82 1.495 3.234 3.125 3.234.779 0 1.396-.344 1.717-.738h.05v.467c0 1.243-.667 1.907-1.742 1.907-.877 0-1.42-.627-1.643-1.156l-1.248.517c.358.86 1.31 1.918 2.89 1.918 1.68 0 3.102-.984 3.102-3.382v-5.83h-1.36v.529zm2.348 5.571h1.433v-9.544h-1.433v9.544zm3.544-3.148c-.036-1.254.976-1.894 1.705-1.894.569 0 1.05.283 1.21.689L67.43 20.74zm4.447-1.082c-.271-.726-1.099-2.066-2.791-2.066-1.68 0-3.076 1.315-3.076 3.247 0 1.82 1.384 3.246 3.236 3.246 1.495 0 2.36-.91 2.718-1.439l-1.112-.738c-.37.541-.877.898-1.606.898-.728 0-1.247-.332-1.581-.983l4.36-1.796-.148-.37zm-34.738-1.07v1.377h3.31c-.1.775-.359 1.34-.753 1.735-.483.48-1.236 1.007-2.557 1.007-2.038 0-3.632-1.635-3.632-3.664 0-2.03 1.594-3.665 3.632-3.665 1.1 0 1.902.43 2.495.984l.976-.972c-.828-.787-1.927-1.39-3.471-1.39C34.347 14 32 16.263 32 19.043c0 2.78 2.347 5.042 5.139 5.042 1.506 0 2.643-.491 3.532-1.414.914-.91 1.198-2.189 1.198-3.223 0-.32-.024-.614-.074-.86h-4.656zm8.494 4.218c-.988 0-1.84-.812-1.84-1.967 0-1.17.852-1.968 1.84-1.968.988 0 1.84.799 1.84 1.968 0 1.155-.852 1.967-1.84 1.967zm0-5.214c-1.804 0-3.274 1.365-3.274 3.247 0 1.868 1.47 3.246 3.274 3.246s3.273-1.378 3.273-3.246c0-1.882-1.47-3.247-3.273-3.247zm7.14 5.214c-.988 0-1.84-.812-1.84-1.967 0-1.17.852-1.968 1.84-1.968.989 0 1.84.799 1.84 1.968 0 1.155-.851 1.967-1.84 1.967zm0-5.214c-1.803 0-3.272 1.365-3.272 3.247 0 1.868 1.47 3.246 3.273 3.246 1.803 0 3.273-1.378 3.273-3.246 0-1.882-1.47-3.247-3.273-3.247z" fill="#353737"/></g></svg>