<svg id="AirtaskerLogo" width="111" height="19" viewBox="0 0 141 23" version="1.1" xmlns="http://www.w3.org/2000/svg" xmlns:xlink="http://www.w3.org/1999/xlink" data-ui-test="undefined-svg">
    <g fill-rule="evenodd">
        <path fill="#008fb4" d="M140.663 11.607l-.026-4.488c-.873.036-3.502.388-4.67 1.791V7.422h-4.878v14.963h4.878v-6.949c.002-.039.007-.078.011-.117.708-3.334 3.873-3.685 4.685-3.712m-43.961.178c-.604-.576-1.235-.867-1.779-1.129a3.924 3.924 0 0 0-1.723-.393c-.464 0-.892.09-1.285.272-.393.182-.59.495-.59.937 0 .423.216.726.65.908.433.181 1.134.382 2.101.605.564.121 1.134.291 1.709.513a6.009 6.009 0 0 1 1.557.878 4.18 4.18 0 0 1 1.119 1.33c.282.525.424 1.149.424 1.875 0 .947-.192 1.75-.575 2.404a4.717 4.717 0 0 1-1.497 1.587 6.45 6.45 0 0 1-2.071.877 9.916 9.916 0 0 1-2.298.272c-1.23 0-2.435-.196-3.614-.59-1.18-.392-2.162-.972-2.948-1.738l2.425-3.046c.444.485 1.344 1.001 1.989 1.322a4.537 4.537 0 0 0 2.057.485c.403 0 .801-.097 1.194-.288.393-.192.59-.53.59-1.013 0-.464-.242-.806-.726-1.029-.483-.221-1.239-.452-2.268-.695a11.86 11.86 0 0 1-1.573-.483 5.015 5.015 0 0 1-1.406-.816 4.073 4.073 0 0 1-1.012-1.272c-.262-.503-.394-1.108-.394-1.814 0-.907.192-1.678.575-2.313a4.862 4.862 0 0 1 1.482-1.557 6.61 6.61 0 0 1 2.01-.893 8.749 8.749 0 0 1 2.193-.287c1.129 0 2.233.177 3.311.529 1.079.353 1.991.882 2.737 1.588l-2.364 2.974m28.725 1.176a2.92 2.92 0 0 0-.729-1.872c-.489-.558-1.222-.838-2.199-.838-.479 0-.916.075-1.316.224-.398.15-.747.355-1.046.614a3.038 3.038 0 0 0-.718.912 2.648 2.648 0 0 0-.288.96h6.296zm4.518 2.015v.599c0 .199-.009.388-.029.567h-10.795c.039.42.164.798.373 1.137.209.34.479.633.808.883.329.248.697.444 1.106.582.408.14.832.209 1.27.209.778 0 1.436-.143 1.975-.433a3.911 3.911 0 0 0 1.316-1.121l3.409 2.153a6.927 6.927 0 0 1-2.766 2.348c-1.148.548-2.478.822-3.993.822a9.538 9.538 0 0 1-3.169-.524 7.665 7.665 0 0 1-2.617-1.525 7.036 7.036 0 0 1-1.764-2.467c-.43-.977-.643-2.093-.643-3.35 0-1.215.208-2.317.628-3.304.418-.986.986-1.824 1.704-2.511a7.57 7.57 0 0 1 2.542-1.6c.976-.379 2.033-.569 3.169-.569 1.097 0 2.104.185 3.021.554a6.557 6.557 0 0 1 2.362 1.6c.658.697 1.171 1.545 1.541 2.541.368.997.552 2.133.552 3.409zM70.83 11.464v-4.5h-4.203V3.612c-.11-1.936-1.018-3.373-4.745-3.375v17.404c0 .761.099 1.45.27 2.068.171.619.451 1.152.84 1.598.389.448.906.79 1.55 1.028.646.237 1.62.356 2.568.356 1.463 0 2.481-.201 3.72-.616v-3.973s-1.167.319-2.438.319c-.666 0-1.124-.166-1.382-.5-.256-.334-.383-.833-.383-1.5v-4.957h4.203"></path><path fill="#008fb4" d="M110.194 14.4l5.533-7.008h-5.892l-4.878 6.158V3.708c-.084-1.983-.959-3.466-4.738-3.47v22.149h4.738v-7.152l5.606 7.152h5.928l-6.297-7.987m-25.209 7.972v-9.91c0-4.261-3.381-5.795-6.373-5.795-3.253 0-5.215 1.038-6.518 2.124l2.474 3.077c.823-.767 2.456-1.552 3.559-1.552 1.803 0 2.175 1.031 2.175 2.35v.254h-1.623c-4.159 0-6.662 1.809-6.662 5.021 0 3.509 3.084 4.431 6.837 4.431h6.131zm-4.683-3.115c-.508-.002-1.114.01-1.555 0-1.217-.026-1.961-.504-1.961-1.553 0-1.047.744-1.653 2.232-1.653h1.284v3.206zM44.596 2.953c0 1.542 1.274 2.749 2.716 2.749a2.741 2.741 0 0 0 2.75-2.749c0-1.508-1.242-2.715-2.75-2.715-1.442 0-2.716 1.207-2.716 2.715m.46 4.043h-.197v15.389h4.939V10.234c-.143-1.869-1.095-3.238-4.742-3.238m15.706 4.611l-.025-4.488c-.875.036-3.502.388-4.671 1.791V7.422h-4.878v14.963h4.878v-6.949c.002-.039.007-.078.011-.117.709-3.334 3.873-3.685 4.685-3.712m78.476 8.523h-.278v.516h.278c.161 0 .27-.114.27-.257 0-.145-.109-.259-.27-.259zm.27 1.441l-.338-.677h-.21v.677h-.304v-1.707h.621a.52.52 0 0 1 .531.525c0 .24-.143.397-.325.462l.367.72h-.342zm-.32-2.138c-.684 0-1.225.567-1.225 1.287 0 .721.541 1.287 1.225 1.287.683 0 1.22-.566 1.22-1.287 0-.72-.537-1.287-1.22-1.287zm0 2.867c-.845 0-1.529-.707-1.529-1.58 0-.873.684-1.58 1.529-1.58.844 0 1.528.707 1.528 1.58 0 .873-.684 1.58-1.528 1.58zM31.056 13.706l2.196-6.333 2.196 6.333h-4.392zM35.592.25h-4.444l-6.777 18.015h-2.705c-2.117 0-3.967-.463-5.21-1.302-1.275-.862-1.895-2.101-1.895-3.788v-2.08h-2.175c-.09 0-3.253-.009-5.493-2.218-1.128-1.112-1.84-2.624-2.128-4.515h15.259c2.773 0 3.795 1.353 4.433 2.569a8.098 8.098 0 0 1 .719 1.926l1.912-5.082S25.471.255 20.024.255H.508v2.054c0 4.011 1.178 7.205 3.5 9.494 2.175 2.143 4.852 2.948 6.622 3.248.884 4.507 5.02 7.323 11.036 7.323h6.256l1.431-4.063 7.802.008 1.429 4.055h5.343L35.592.25z">
        </path>
    </g>
</svg>